<?xml version="1.0" encoding="utf-8"?>
<!-- Generator: Adobe Illustrator 15.1.0, SVG Export Plug-In . SVG Version: 6.00 Build 0)  -->
<!DOCTYPE svg PUBLIC "-//W3C//DTD SVG 1.1//EN" "http://www.w3.org/Graphics/SVG/1.1/DTD/svg11.dtd">
<svg version="1.1" xmlns="http://www.w3.org/2000/svg" xmlns:xlink="http://www.w3.org/1999/xlink" x="0px" y="0px"
	 width="849.085px" height="183.019px" viewBox="0 0 849.085 183.019" enable-background="new 0 0 849.085 183.019"
	 xml:space="preserve">
<g id="Layer_2">
</g>
<g id="Layer_3">
	<g>
		<g>
			<linearGradient id="SVGID_1_" gradientUnits="userSpaceOnUse" x1="108.5962" y1="154.0352" x2="108.5962" y2="28.3436">
				<stop  offset="0" style="stop-color:#FF0055"/>
				<stop  offset="1" style="stop-color:#FF5A91"/>
			</linearGradient>
			<path fill="url(#SVGID_1_)" d="M162.647,28.078H54.543c-4.971,0-9.016,4.068-9.016,9.066v53.902v54.826
				c0,5,4.045,9.066,9.016,9.066h108.104c4.973,0,9.018-4.066,9.018-9.066V91.047V37.145
				C171.665,32.146,167.62,28.078,162.647,28.078z"/>
			<path fill="#FFFFFF" d="M141.612,45.703H95.677c-1.209,0-2.188,0.979-2.188,2.188v45.936c0,1.209,0.979,2.188,2.188,2.188h45.936
				c1.207,0,2.188-0.979,2.188-2.188V47.891C143.8,46.682,142.819,45.703,141.612,45.703z M133.724,86.625h-30.158V55.09h25.412
				l4.746,4.963V86.625z"/>
			<g>
				<circle fill="#FFFFFF" cx="141.215" cy="113.582" r="2.585"/>
				<circle fill="#FFFFFF" cx="141.215" cy="124.156" r="2.585"/>
				<rect x="111.667" y="122.498" fill="#FFFFFF" width="25.174" height="3.316"/>
				<rect x="111.667" y="111.922" fill="#FFFFFF" width="25.174" height="3.318"/>
				<circle fill="#FFFFFF" cx="141.215" cy="134.732" r="2.585"/>
				<rect x="111.667" y="133.072" fill="#FFFFFF" width="25.174" height="3.318"/>
			</g>
			<path fill="#FFFFFF" d="M74.984,45.703c-0.877,0-1.592,0.717-1.592,1.592v87.506c0,0.873,0.715,1.59,1.592,1.59h11.399
				c0.875,0,1.59-0.717,1.59-1.59V47.295c0-0.875-0.715-1.592-1.59-1.592H74.984z M82.507,89.455c0,0.877,0,2.307,0,3.182v36.695
				c0,0.873-0.717,1.59-1.591,1.59h-0.465c-0.873,0-1.59-0.717-1.59-1.59V92.637c0-0.875,0-2.305,0-3.182V52.762
				c0-0.875,0.717-1.59,1.59-1.59h0.465c0.874,0,1.591,0.715,1.591,1.59V89.455z"/>
		</g>
		<g>
			<linearGradient id="SVGID_2_" gradientUnits="userSpaceOnUse" x1="237.708" y1="155.877" x2="237.708" y2="48.1941">
				<stop  offset="0" style="stop-color:#FF0055"/>
				<stop  offset="1" style="stop-color:#FF5A91"/>
			</linearGradient>
			<path fill="url(#SVGID_2_)" d="M203.204,142.537h19.318v-42.063h49.689V42.035h-69.008V142.537z M222.522,59.252h31.563v24.846
				h-31.563V59.252z"/>
			<linearGradient id="SVGID_3_" gradientUnits="userSpaceOnUse" x1="295.8682" y1="155.877" x2="295.8682" y2="48.1941">
				<stop  offset="0" style="stop-color:#FF0055"/>
				<stop  offset="1" style="stop-color:#FF5A91"/>
			</linearGradient>
			<rect x="286.21" y="42.035" fill="url(#SVGID_3_)" width="19.316" height="100.502"/>
			<linearGradient id="SVGID_4_" gradientUnits="userSpaceOnUse" x1="354.0278" y1="155.877" x2="354.0278" y2="48.1941">
				<stop  offset="0" style="stop-color:#FF0055"/>
				<stop  offset="1" style="stop-color:#FF5A91"/>
			</linearGradient>
			<polygon fill="url(#SVGID_4_)" points="370.405,98.375 338.84,42.035 319.523,42.035 319.523,142.537 338.84,142.537 
				338.84,84.518 370.405,142.537 388.532,142.537 388.532,42.035 370.405,42.035 			"/>
			<linearGradient id="SVGID_5_" gradientUnits="userSpaceOnUse" x1="437.0322" y1="155.877" x2="437.0322" y2="48.1941">
				<stop  offset="0" style="stop-color:#FF0055"/>
				<stop  offset="1" style="stop-color:#FF5A91"/>
			</linearGradient>
			<polygon fill="url(#SVGID_5_)" points="453.409,42.035 421.846,84.098 421.846,42.035 402.529,42.035 402.529,142.537 
				421.846,142.537 421.846,100.475 453.409,142.537 471.536,142.537 437.872,91.027 471.536,42.035 			"/>
			<linearGradient id="SVGID_6_" gradientUnits="userSpaceOnUse" x1="520.0381" y1="155.877" x2="520.0381" y2="48.1941">
				<stop  offset="0" style="stop-color:#FF0055"/>
				<stop  offset="1" style="stop-color:#FF5A91"/>
			</linearGradient>
			<polygon fill="url(#SVGID_6_)" points="520.458,73.951 504.851,42.035 485.534,42.035 509.89,92.287 509.89,142.537 
				529.206,142.537 529.206,92.287 554.542,42.035 536.415,42.035 			"/>
			<linearGradient id="SVGID_7_" gradientUnits="userSpaceOnUse" x1="603.043" y1="155.877" x2="603.043" y2="48.1941">
				<stop  offset="0" style="stop-color:#FF0055"/>
				<stop  offset="1" style="stop-color:#FF5A91"/>
			</linearGradient>
			<path fill="url(#SVGID_7_)" d="M568.538,142.537h69.01v-37.303l-8.471-12.598l8.471-12.527V42.035h-69.01V142.537z
				 M587.854,59.252h31.566v24.846h-31.566V59.252z M587.854,100.475h31.566v24.846h-31.566V100.475z"/>
			<linearGradient id="SVGID_8_" gradientUnits="userSpaceOnUse" x1="686.0479" y1="155.877" x2="686.0479" y2="48.1941">
				<stop  offset="0" style="stop-color:#FF0055"/>
				<stop  offset="1" style="stop-color:#FF5A91"/>
			</linearGradient>
			<path fill="url(#SVGID_8_)" d="M651.544,142.537h19.316v-42.063h31.564v42.063h18.127V42.035h-69.008V142.537z M670.86,59.252
				h31.564v24.846H670.86V59.252z"/>
			<linearGradient id="SVGID_9_" gradientUnits="userSpaceOnUse" x1="769.0537" y1="155.877" x2="769.0537" y2="48.1941">
				<stop  offset="0" style="stop-color:#FF0055"/>
				<stop  offset="1" style="stop-color:#FF5A91"/>
			</linearGradient>
			<path fill="url(#SVGID_9_)" d="M803.558,42.035H734.55v100.502h19.316v-42.063h6.789l24.775,42.063h18.127l-23.586-42.063h23.586
				V42.035z M785.431,84.098h-31.564V59.252h31.564V84.098z"/>
		</g>
	</g>
</g>
</svg>
