<?xml version="1.0" encoding="utf-8"?>
<!-- Generator: Adobe Illustrator 15.1.0, SVG Export Plug-In . SVG Version: 6.00 Build 0)  -->
<!DOCTYPE svg PUBLIC "-//W3C//DTD SVG 1.1//EN" "http://www.w3.org/Graphics/SVG/1.1/DTD/svg11.dtd">
<svg version="1.1" xmlns="http://www.w3.org/2000/svg" xmlns:xlink="http://www.w3.org/1999/xlink" x="0px" y="0px"
	 width="792.81px" height="797.363px" viewBox="0 0 792.81 797.363" enable-background="new 0 0 792.81 797.363"
	 xml:space="preserve">
<g id="Layer_1" display="none">
	
		<rect x="-103.595" y="-101.318" display="inline" fill="none" stroke="#231F20" stroke-miterlimit="10" width="999.999" height="1000"/>
	<path display="inline" fill="none" stroke="#231F20" stroke-miterlimit="10" d="M736.146,797.364H56.664
		C25.42,797.364,0,771.801,0,740.379V56.987C0,25.564,25.42,0,56.664,0h679.481c31.245,0,56.664,25.563,56.664,56.986v683.392
		C792.81,771.801,767.391,797.364,736.146,797.364z"/>
	<path display="inline" fill="none" stroke="#231F20" stroke-miterlimit="10" d="M682.025,859.354H110.782
		c-26.266,0-47.636-29.537-47.636-65.844V3.856c0-36.308,21.37-65.845,47.636-65.845h571.243c26.268,0,47.639,29.537,47.639,65.845
		V793.51C729.664,829.816,708.293,859.354,682.025,859.354z"/>
	<path display="inline" fill="none" stroke="#231F20" stroke-miterlimit="10" d="M790.005,731.404H2.805
		c-36.197,0-65.646-21.333-65.646-47.557V113.517c0-26.224,29.448-47.557,65.646-47.557h787.2c36.196,0,65.646,21.333,65.646,47.557
		v570.331C855.651,710.071,826.201,731.404,790.005,731.404z"/>
	
		<ellipse display="inline" fill="none" stroke="#231F20" stroke-miterlimit="10" cx="396.406" cy="398.682" rx="209.776" ry="210.16"/>
	
		<ellipse display="inline" fill="none" stroke="#231F20" stroke-miterlimit="10" cx="396.405" cy="398.682" rx="459.832" ry="460.669"/>
	
		<line display="inline" fill="none" stroke="#231F20" stroke-miterlimit="10" x1="-103.595" y1="-101.318" x2="896.404" y2="898.682"/>
	
		<line display="inline" fill="none" stroke="#231F20" stroke-miterlimit="10" x1="896.404" y1="-101.318" x2="-103.595" y2="898.682"/>
	
		<line display="inline" fill="none" stroke="#231F20" stroke-miterlimit="10" x1="396.405" y1="-101.318" x2="396.405" y2="898.682"/>
	
		<line display="inline" fill="none" stroke="#231F20" stroke-miterlimit="10" x1="247.573" y1="-101.318" x2="247.573" y2="898.682"/>
	
		<line display="inline" fill="none" stroke="#231F20" stroke-miterlimit="10" x1="540.069" y1="-101.317" x2="540.069" y2="898.682"/>
	
		<line display="inline" fill="none" stroke="#231F20" stroke-miterlimit="10" x1="-103.595" y1="398.682" x2="896.404" y2="398.682"/>
	
		<line display="inline" fill="none" stroke="#231F20" stroke-miterlimit="10" x1="-103.595" y1="398.682" x2="896.404" y2="398.682"/>
	
		<line display="inline" fill="none" stroke="#231F20" stroke-miterlimit="10" x1="-103.595" y1="398.682" x2="896.404" y2="398.682"/>
	<line display="inline" fill="none" stroke="#231F20" stroke-miterlimit="10" x1="-103.594" y1="546.75" x2="896.405" y2="546.75"/>
	<line display="inline" fill="none" stroke="#231F20" stroke-miterlimit="10" x1="-103.594" y1="253.72" x2="896.405" y2="253.72"/>
</g>
<g id="Layer_2">
</g>
<g id="Layer_3">
	<g>
		<linearGradient id="SVGID_1_" gradientUnits="userSpaceOnUse" x1="396.4048" y1="791.6816" x2="396.4048" y2="1.6713">
			<stop  offset="0" style="stop-color:#FF0055"/>
			<stop  offset="1" style="stop-color:#FF5A91"/>
		</linearGradient>
		<path fill="url(#SVGID_1_)" d="M736.146,0H56.664C25.42,0,0,25.563,0,56.985v338.786v344.606c0,31.422,25.42,56.985,56.664,56.985
			h679.481c31.246,0,56.664-25.563,56.664-56.985V395.771V56.985C792.81,25.563,767.392,0,736.146,0z"/>
		<path fill="#FFFFFF" d="M603.926,110.771H315.201c-7.593,0-13.749,6.155-13.749,13.749v288.725
			c0,7.593,6.155,13.749,13.749,13.749h288.725c7.593,0,13.749-6.156,13.749-13.749V124.52
			C617.675,116.926,611.519,110.771,603.926,110.771z M554.341,367.988H364.787V169.775h159.726l29.828,31.191V367.988z"/>
		<g>
			<circle fill="#FFFFFF" cx="601.428" cy="537.415" r="16.247"/>
			<circle fill="#FFFFFF" cx="601.428" cy="603.882" r="16.247"/>
			<rect x="415.71" y="593.455" fill="#FFFFFF" width="158.23" height="20.852"/>
			<rect x="415.71" y="526.989" fill="#FFFFFF" width="158.23" height="20.852"/>
			<circle fill="#FFFFFF" cx="601.428" cy="670.347" r="16.247"/>
			<rect x="415.71" y="659.921" fill="#FFFFFF" width="158.23" height="20.852"/>
		</g>
		<g>
			<path fill="#FFFFFF" d="M185.135,110.771c-5.5,0-10,4.5-10,10v550.002c0,5.5,4.5,10,10,10h71.659c5.5,0,10-4.5,10-10V120.771
				c0-5.5-4.5-10-10-10H185.135z M232.422,385.771c0,5.5,0,14.5,0,20V636.4c0,5.5-4.5,10-10,10h-2.915c-5.5,0-10-4.5-10-10V405.771
				c0-5.5,0-14.5,0-20V155.143c0-5.5,4.5-10,10-10h2.915c5.5,0,10,4.5,10,10V385.771z"/>
		</g>
	</g>
</g>
</svg>
