<?xml version="1.0" encoding="utf-8"?>
<!-- Generator: Adobe Illustrator 15.1.0, SVG Export Plug-In . SVG Version: 6.00 Build 0)  -->
<!DOCTYPE svg PUBLIC "-//W3C//DTD SVG 1.1//EN" "http://www.w3.org/Graphics/SVG/1.1/DTD/svg11.dtd">
<svg version="1.1" xmlns="http://www.w3.org/2000/svg" xmlns:xlink="http://www.w3.org/1999/xlink" x="0px" y="0px"
	 width="471.047px" height="489.049px" viewBox="0 0 471.047 489.049" enable-background="new 0 0 471.047 489.049"
	 xml:space="preserve">
<g id="Layer_2">
</g>
<g id="Layer_3">
	<g>
		<g>
			<linearGradient id="SVGID_1_" gradientUnits="userSpaceOnUse" x1="235.5229" y1="331.9043" x2="235.5229" y2="48.5125">
				<stop  offset="0" style="stop-color:#FF0055"/>
				<stop  offset="1" style="stop-color:#FF5A91"/>
			</linearGradient>
			<path fill="url(#SVGID_1_)" d="M357.394,47.913H113.652c-11.209,0-20.327,9.17-20.327,20.441v121.529v123.617
				c0,11.27,9.118,20.441,20.327,20.441h243.741c11.212,0,20.327-9.172,20.327-20.441V189.884V68.354
				C377.721,57.083,368.605,47.913,357.394,47.913z"/>
			<path fill="#FFFFFF" d="M309.965,87.649h-103.57c-2.724,0-4.933,2.207-4.933,4.932v103.57c0,2.725,2.209,4.932,4.933,4.932
				h103.57c2.723,0,4.932-2.207,4.932-4.932V92.581C314.896,89.856,312.688,87.649,309.965,87.649z M292.181,179.917h-67.999
				v-71.102h57.296l10.703,11.189V179.917z"/>
			<g>
				<path fill="#FFFFFF" d="M314.896,240.692c0,3.219-2.607,5.83-5.826,5.83c-3.221,0-5.828-2.611-5.828-5.83
					c0-3.217,2.607-5.828,5.828-5.828C312.289,234.864,314.896,237.476,314.896,240.692z"/>
				<path fill="#FFFFFF" d="M314.896,264.534c0,3.221-2.607,5.832-5.826,5.832c-3.221,0-5.828-2.611-5.828-5.832
					c0-3.215,2.607-5.826,5.828-5.826C312.289,258.708,314.896,261.319,314.896,264.534z"/>
				<rect x="242.448" y="260.796" fill="#FFFFFF" width="56.761" height="7.479"/>
				<rect x="242.448" y="236.952" fill="#FFFFFF" width="56.761" height="7.482"/>
				<path fill="#FFFFFF" d="M314.896,288.38c0,3.217-2.607,5.826-5.826,5.826c-3.221,0-5.828-2.609-5.828-5.826
					c0-3.221,2.607-5.83,5.828-5.83C312.289,282.55,314.896,285.159,314.896,288.38z"/>
				<rect x="242.448" y="284.64" fill="#FFFFFF" width="56.761" height="7.479"/>
			</g>
			<path fill="#FFFFFF" d="M159.738,87.649c-1.975,0-3.587,1.615-3.587,3.588v197.297c0,1.971,1.612,3.584,3.587,3.584h25.703
				c1.975,0,3.588-1.613,3.588-3.584V91.237c0-1.973-1.613-3.588-3.588-3.588H159.738z M176.7,186.298c0,1.975,0,5.199,0,7.172
				v82.734c0,1.969-1.614,3.584-3.589,3.584h-1.044c-1.972,0-3.588-1.615-3.588-3.584V193.47c0-1.973,0-5.197,0-7.172v-82.734
				c0-1.973,1.616-3.584,3.588-3.584h1.044c1.975,0,3.589,1.611,3.589,3.584V186.298z"/>
		</g>
		<g>
			<linearGradient id="SVGID_2_" gradientUnits="userSpaceOnUse" x1="60.8735" y1="449.9053" x2="60.8735" y2="379.1163">
				<stop  offset="0" style="stop-color:#FF0055"/>
				<stop  offset="1" style="stop-color:#FF5A91"/>
			</linearGradient>
			<path fill="url(#SVGID_2_)" d="M38.191,441.136H50.89v-27.65h32.666v-38.418H38.191V441.136z M50.89,386.386h20.75v16.334H50.89
				V386.386z"/>
			<linearGradient id="SVGID_3_" gradientUnits="userSpaceOnUse" x1="99.1069" y1="449.9053" x2="99.1069" y2="379.1163">
				<stop  offset="0" style="stop-color:#FF0055"/>
				<stop  offset="1" style="stop-color:#FF5A91"/>
			</linearGradient>
			<rect x="92.758" y="375.067" fill="url(#SVGID_3_)" width="12.698" height="66.068"/>
			<linearGradient id="SVGID_4_" gradientUnits="userSpaceOnUse" x1="137.3403" y1="449.9053" x2="137.3403" y2="379.1163">
				<stop  offset="0" style="stop-color:#FF0055"/>
				<stop  offset="1" style="stop-color:#FF5A91"/>
			</linearGradient>
			<polygon fill="url(#SVGID_4_)" points="148.106,412.104 127.356,375.067 114.658,375.067 114.658,441.136 127.356,441.136 
				127.356,402.995 148.106,441.136 160.022,441.136 160.022,375.067 148.106,375.067 			"/>
			<linearGradient id="SVGID_5_" gradientUnits="userSpaceOnUse" x1="191.9063" y1="449.9053" x2="191.9063" y2="379.1163">
				<stop  offset="0" style="stop-color:#FF0055"/>
				<stop  offset="1" style="stop-color:#FF5A91"/>
			</linearGradient>
			<polygon fill="url(#SVGID_5_)" points="202.673,375.067 181.922,402.72 181.922,375.067 169.224,375.067 169.224,441.136 
				181.922,441.136 181.922,413.485 202.673,441.136 214.589,441.136 192.458,407.274 214.589,375.067 			"/>
			<linearGradient id="SVGID_6_" gradientUnits="userSpaceOnUse" x1="246.4727" y1="449.9053" x2="246.4727" y2="379.1163">
				<stop  offset="0" style="stop-color:#FF0055"/>
				<stop  offset="1" style="stop-color:#FF5A91"/>
			</linearGradient>
			<polygon fill="url(#SVGID_6_)" points="246.75,396.048 236.488,375.067 223.79,375.067 239.803,408.103 239.803,441.136 
				252.5,441.136 252.5,408.103 269.156,375.067 257.24,375.067 			"/>
			<linearGradient id="SVGID_7_" gradientUnits="userSpaceOnUse" x1="301.04" y1="449.9053" x2="301.04" y2="379.1163">
				<stop  offset="0" style="stop-color:#FF0055"/>
				<stop  offset="1" style="stop-color:#FF5A91"/>
			</linearGradient>
			<path fill="url(#SVGID_7_)" d="M278.357,441.136h45.365v-24.521l-5.568-8.281l5.568-8.236v-25.029h-45.365V441.136z
				 M291.055,386.386h20.752v16.334h-20.752V386.386z M291.055,413.485h20.752v16.332h-20.752V413.485z"/>
			<linearGradient id="SVGID_8_" gradientUnits="userSpaceOnUse" x1="355.6064" y1="449.9053" x2="355.6064" y2="379.1163">
				<stop  offset="0" style="stop-color:#FF0055"/>
				<stop  offset="1" style="stop-color:#FF5A91"/>
			</linearGradient>
			<path fill="url(#SVGID_8_)" d="M332.924,441.136h12.697v-27.65h20.75v27.65h11.918v-66.068h-45.365V441.136z M345.621,386.386
				h20.75v16.334h-20.75V386.386z"/>
			<linearGradient id="SVGID_9_" gradientUnits="userSpaceOnUse" x1="410.1729" y1="449.9053" x2="410.1729" y2="379.1163">
				<stop  offset="0" style="stop-color:#FF0055"/>
				<stop  offset="1" style="stop-color:#FF5A91"/>
			</linearGradient>
			<path fill="url(#SVGID_9_)" d="M432.855,375.067H387.49v66.068h12.699v-27.65h4.461l16.289,27.65h11.916l-15.506-27.65h15.506
				V375.067z M420.939,402.72h-20.75v-16.334h20.75V402.72z"/>
		</g>
	</g>
</g>
</svg>
